<!--?xml version="1.0" standalone="no"?-->
              <svg id="sw-js-blob-svg" viewBox="0 0 100 100" xmlns="http://www.w3.org/2000/svg" version="1.1">
                    <defs> 
                        <linearGradient id="sw-gradient" x1="0" x2="1" y1="1" y2="0">
                            <stop id="stop1" stop-color="rgba(248, 117, 55, 1)" offset="0%"></stop>
                            <stop id="stop2" stop-color="rgba(251, 168, 31, 1)" offset="100%"></stop>
                        </linearGradient>
                    </defs>
                <path fill="url(#sw-gradient)" d="M27.3,-30.9C34.2,-26.8,37.7,-17,37.7,-8C37.6,1,34.1,9.3,29,15.5C24,21.7,17.5,25.9,10.1,29.1C2.8,32.3,-5.3,34.6,-12.6,32.8C-19.9,30.9,-26.4,24.9,-29.4,17.9C-32.5,10.8,-32.1,2.6,-29.9,-4.5C-27.8,-11.6,-23.9,-17.7,-18.6,-22.1C-13.3,-26.4,-6.6,-29.1,1.8,-31.2C10.2,-33.4,20.5,-35,27.3,-30.9Z" width="100%" height="100%" transform="translate(50 50)" stroke-width="0" style="transition: all 0.3s ease 0s;"></path>
              </svg>